<svg width="13" height="10" viewBox="0 0 13 10" fill="none" xmlns="http://www.w3.org/2000/svg">
<g clip-path="url(#clip0_4_20)">
<path d="M0 0H13V9.53333H0V0Z" fill="#012169"/>
<path d="M1.52344 0L6.47969 3.59486L11.4156 0H13V1.23139L8.125 4.78653L13 8.32181V9.53333H11.375L6.5 5.97819L1.64531 9.53333H0V8.34167L4.85469 4.80639L0 1.27111V0H1.52344Z" fill="white"/>
<path d="M8.6125 5.58097L13 8.73889V9.53333L7.49531 5.58097H8.6125ZM4.875 5.97819L4.99687 6.67333L1.09687 9.53333H0L4.875 5.97819ZM13 0V0.0595833L7.94219 3.79347L7.98281 2.91958L11.9844 0H13ZM0 0L4.85469 3.49556H3.63594L0 0.834167V0Z" fill="#C8102E"/>
<path d="M4.89531 0V9.53333H8.14531V0H4.89531ZM0 3.17778V6.35556H13V3.17778H0Z" fill="white"/>
<path d="M0 3.83319V5.73986H13V3.83319H0ZM5.54531 0V9.53333H7.49531V0H5.54531Z" fill="#C8102E"/>
</g>
<defs>
<clipPath id="clip0_4_20">
<rect width="13" height="9.53333" fill="white"/>
</clipPath>
</defs>
</svg>
